<svg width="18" height="44" viewBox="0 0 18 44" fill="none" xmlns="http://www.w3.org/2000/svg">
<path d="M1 40L0.5 40L0.499999 40.5L0.999999 40.5L1 40ZM17.3536 40.3536C17.5488 40.1583 17.5488 39.8417 17.3536 39.6464L14.1716 36.4645C13.9763 36.2692 13.6597 36.2692 13.4645 36.4645C13.2692 36.6597 13.2692 36.9763 13.4645 37.1716L16.2929 40L13.4645 42.8284C13.2692 43.0237 13.2692 43.3403 13.4645 43.5355C13.6597 43.7308 13.9763 43.7308 14.1716 43.5355L17.3536 40.3536ZM0.5 0L0.5 40L1.5 40L1.5 0H0.5ZM0.999999 40.5L17 40.5L17 39.5L1 39.5L0.999999 40.5Z" fill="#9E9E9E"/>
</svg>
