<svg width="25" height="25" viewBox="0 0 25 25" fill="none" xmlns="http://www.w3.org/2000/svg">
<path d="M22.2604 14.5833L22.6146 10.8646C22.8854 8.32292 22.1562 6.25 17.7083 6.25H7.29165C2.84373 6.25 2.11457 8.32292 2.39582 10.8646L3.17707 19.1979C3.39582 21.2396 4.14582 22.9167 8.33332 22.9167H16.6666C20.8542 22.9167 21.6042 21.2396 21.8229 19.1979" stroke="#171717" stroke-width="1.5" stroke-miterlimit="10" stroke-linecap="round" stroke-linejoin="round"/>
<path d="M8.33331 6.25016V5.41683C8.33331 3.57308 8.33331 2.0835 11.6666 2.0835H13.3333C16.6666 2.0835 16.6666 3.57308 16.6666 5.41683V6.25016" stroke="#171717" stroke-width="1.5" stroke-miterlimit="10" stroke-linecap="round" stroke-linejoin="round"/>
<path d="M14.5834 13.5417V14.5833C14.5834 14.5937 14.5834 14.5938 14.5834 14.6042C14.5834 15.7396 14.5729 16.6667 12.5 16.6667C10.4375 16.6667 10.4167 15.75 10.4167 14.6146V13.5417C10.4167 12.5 10.4167 12.5 11.4584 12.5H13.5417C14.5834 12.5 14.5834 12.5 14.5834 13.5417Z" stroke="#171717" stroke-width="1.5" stroke-miterlimit="10" stroke-linecap="round" stroke-linejoin="round"/>
<path d="M22.5521 11.4585C20.1458 13.2085 17.3958 14.2502 14.5833 14.6043" stroke="#171717" stroke-width="1.5" stroke-miterlimit="10" stroke-linecap="round" stroke-linejoin="round"/>
<path d="M2.72919 11.7397C5.07294 13.3439 7.71877 14.3127 10.4167 14.6147" stroke="#171717" stroke-width="1.5" stroke-miterlimit="10" stroke-linecap="round" stroke-linejoin="round"/>
</svg>
