<svg width="17" height="17" viewBox="0 0 17 17" fill="none" xmlns="http://www.w3.org/2000/svg">
<path d="M1.4165 5.66663C1.4165 2.83329 2.83317 1.41663 5.6665 1.41663H8.49984" stroke="white" stroke-width="1.5" stroke-miterlimit="10" stroke-linecap="round" stroke-linejoin="round"/>
<path d="M15.5832 5.66663V9.20829C15.5832 12.0416 14.1665 13.4583 11.3332 13.4583H10.979C10.7594 13.4583 10.5469 13.5645 10.4123 13.7416L9.34984 15.1583C8.88234 15.7816 8.11734 15.7816 7.64984 15.1583L6.58734 13.7416C6.474 13.5858 6.21192 13.4583 6.02067 13.4583H5.6665C2.83317 13.4583 1.4165 12.75 1.4165 9.20829V8.49996" stroke="white" stroke-width="1.5" stroke-miterlimit="10" stroke-linecap="round" stroke-linejoin="round"/>
<path d="M12.75 4.95829C12.3958 4.95829 11.1421 4.39162 10.7666 3.27245C10.5329 2.5712 10.8091 1.70704 11.5741 1.4662C11.9708 1.34579 12.4666 1.44495 12.75 1.82037C13.0191 1.43079 13.5291 1.34579 13.9258 1.4662C14.6908 1.69995 14.9671 2.5712 14.7333 3.27245" stroke="white" stroke-width="1.5" stroke-linecap="round" stroke-linejoin="round"/>
<path d="M11.3307 7.79167H11.3371" stroke="white" stroke-width="1.5" stroke-linecap="round" stroke-linejoin="round"/>
<path d="M8.49676 7.79167H8.50312" stroke="white" stroke-width="1.5" stroke-linecap="round" stroke-linejoin="round"/>
<path d="M5.66278 7.79167H5.66914" stroke="white" stroke-width="1.5" stroke-linecap="round" stroke-linejoin="round"/>
</svg>
