<svg width="25" height="25" viewBox="0 0 25 25" fill="none" xmlns="http://www.w3.org/2000/svg">
<path d="M22.9167 13.5416V15.625C22.9167 20.8333 20.8334 22.9166 15.625 22.9166H9.37504C4.16671 22.9166 2.08337 20.8333 2.08337 15.625V14.0416" stroke="white" stroke-width="1.5" stroke-linecap="round" stroke-linejoin="round"/>
<path d="M11.4584 2.08337H9.37504C4.16671 2.08337 2.08337 4.16671 2.08337 9.37504" stroke="white" stroke-width="1.5" stroke-linecap="round" stroke-linejoin="round"/>
<path d="M20.7604 9.38544L21.8542 8.29169C23.2708 6.87502 23.9375 5.22919 21.8542 3.14585C19.7708 1.06252 18.125 1.72919 16.7083 3.14585L8.5 11.3542C8.1875 11.6667 7.875 12.2813 7.8125 12.7292L7.36458 15.8646C7.19791 17 8 17.7917 9.13541 17.6354L12.2708 17.1875C12.7083 17.125 13.3229 16.8125 13.6458 16.5L16.9583 13.1875L17.7187 12.4271" stroke="white" stroke-width="1.5" stroke-miterlimit="10" stroke-linecap="round" stroke-linejoin="round"/>
<path d="M15.5312 4.32288C16.2292 6.81246 18.1771 8.76038 20.6771 9.46871" stroke="white" stroke-width="1.5" stroke-miterlimit="10" stroke-linecap="round" stroke-linejoin="round"/>
</svg>
