<svg width="25" height="25" viewBox="0 0 25 25" fill="none" xmlns="http://www.w3.org/2000/svg">
<path d="M16.8645 2.0835H8.13533C4.34367 2.0835 2.08325 4.34391 2.08325 8.13558V16.8543C2.08325 20.6564 4.34367 22.9168 8.13533 22.9168H16.8541C20.6458 22.9168 22.9062 20.6564 22.9062 16.8647V8.13558C22.9166 4.34391 20.6562 2.0835 16.8645 2.0835ZM11.4062 18.2397C11.1041 18.5418 10.5312 18.8335 10.1145 18.896L7.552 19.2606C7.45825 19.271 7.3645 19.2814 7.27075 19.2814C6.84367 19.2814 6.44784 19.1356 6.16659 18.8543C5.82284 18.5106 5.677 18.0106 5.76034 17.4585L6.12492 14.896C6.18742 14.4689 6.46867 13.9064 6.78117 13.6043L11.427 8.9585C11.5103 9.17725 11.5937 9.396 11.7083 9.646C11.8124 9.86475 11.927 10.0939 12.052 10.3022C12.1562 10.4793 12.2708 10.646 12.3645 10.771C12.4791 10.9481 12.6145 11.1147 12.6978 11.2085C12.7499 11.2814 12.7916 11.3335 12.8124 11.3543C13.0728 11.6668 13.3749 11.9585 13.6353 12.1772C13.7083 12.2502 13.7499 12.2918 13.7708 12.3022C13.927 12.4272 14.0833 12.5522 14.2187 12.646C14.3853 12.771 14.552 12.8856 14.7291 12.9793C14.9374 13.1043 15.1666 13.2189 15.3958 13.3335C15.6353 13.4377 15.8541 13.5314 16.0728 13.6043L11.4062 18.2397ZM18.0937 11.5522L17.1353 12.521C17.0728 12.5835 16.9895 12.6147 16.9062 12.6147C16.8749 12.6147 16.8333 12.6147 16.8124 12.6043C14.6978 12.0002 13.0103 10.3127 12.4062 8.19808C12.3749 8.0835 12.4062 7.9585 12.4895 7.88558L13.4583 6.91683C15.0416 5.3335 16.552 5.36475 18.1041 6.91683C18.8958 7.7085 19.2812 8.46891 19.2812 9.26058C19.2708 10.0106 18.8853 10.7606 18.0937 11.5522Z" fill="white"/>
</svg>
