<svg width="18" height="18" viewBox="0 0 18 18" fill="none" xmlns="http://www.w3.org/2000/svg">
<path d="M6.77244 10.4999C6.47994 10.0724 6.31494 9.55494 6.31494 8.99994C6.31494 7.51494 7.51494 6.31494 8.99994 6.31494C10.4849 6.31494 11.6849 7.51494 11.6849 8.99994C11.6849 10.4849 10.4849 11.6849 8.99994 11.6849" stroke="white" stroke-width="1.5" stroke-linecap="round" stroke-linejoin="round"/>
<path d="M13.1699 4.18499C11.9024 3.28499 10.4774 2.79749 8.99988 2.79749C6.35238 2.79749 3.88488 4.35749 2.16738 7.05749C1.49238 8.11499 1.49238 9.89249 2.16738 10.95C3.88488 13.65 6.35238 15.21 8.99988 15.21C11.6474 15.21 14.1149 13.65 15.8324 10.95C16.5074 9.89249 16.5074 8.11499 15.8324 7.05749" stroke="white" stroke-width="1.5" stroke-linecap="round" stroke-linejoin="round"/>
</svg>
