<svg width="25" height="25" viewBox="0 0 25 25" fill="none" xmlns="http://www.w3.org/2000/svg">
<path d="M20.875 7.10417L14.875 2.90626C13.2396 1.76042 10.7292 1.82292 9.15627 3.04167L3.93752 7.11459C2.89585 7.92709 2.07294 9.59376 2.07294 10.9063V18.0938C2.07294 20.75 4.22919 22.9167 6.88544 22.9167H18.1146C20.7709 22.9167 22.9271 20.7604 22.9271 18.1042V11.0417C22.9271 9.63542 22.0209 7.90626 20.875 7.10417ZM13.2813 18.75C13.2813 19.1771 12.9271 19.5313 12.5 19.5313C12.0729 19.5313 11.7188 19.1771 11.7188 18.75V15.625C11.7188 15.1979 12.0729 14.8438 12.5 14.8438C12.9271 14.8438 13.2813 15.1979 13.2813 15.625V18.75Z" fill="white"/>
</svg>
