<svg width="25" height="25" viewBox="0 0 25 25" fill="none" xmlns="http://www.w3.org/2000/svg">
<path d="M22.4584 11.1875L21.0522 9.54167C20.7917 9.22917 20.573 8.64583 20.573 8.22917V6.45833C20.573 5.35417 19.6667 4.44792 18.5626 4.44792H16.7917C16.3751 4.44792 15.7813 4.22917 15.4688 3.96875L13.823 2.5625C13.1042 1.94792 11.9272 1.94792 11.2084 2.5625L9.54175 3.96875C9.22925 4.22917 8.64592 4.44792 8.22925 4.44792H6.42717C5.323 4.44792 4.41675 5.35417 4.41675 6.45833V8.22917C4.41675 8.63542 4.20841 9.21875 3.948 9.53125L2.54175 11.1875C1.93758 11.9167 1.93758 13.0833 2.54175 13.7917L3.948 15.4479C4.20841 15.75 4.41675 16.3438 4.41675 16.75V18.5313C4.41675 19.6354 5.323 20.5417 6.42717 20.5417H8.23967C8.64592 20.5417 9.23967 20.7604 9.55217 21.0208L11.198 22.4271C11.9167 23.0417 13.0938 23.0417 13.8126 22.4271L15.4584 21.0208C15.7709 20.7604 16.3542 20.5417 16.7709 20.5417H18.5417C19.6459 20.5417 20.5522 19.6354 20.5522 18.5313V16.7604C20.5522 16.3438 20.7709 15.7604 21.0313 15.4479L22.4376 13.8021C23.073 13.0938 23.073 11.9167 22.4584 11.1875ZM11.7188 8.46875C11.7188 8.04167 12.073 7.6875 12.5001 7.6875C12.9272 7.6875 13.2813 8.04167 13.2813 8.46875V13.5C13.2813 13.9271 12.9272 14.2813 12.5001 14.2813C12.073 14.2813 11.7188 13.9271 11.7188 13.5V8.46875ZM12.5001 17.5729C11.9272 17.5729 11.4584 17.1042 11.4584 16.5313C11.4584 15.9583 11.9167 15.4896 12.5001 15.4896C13.073 15.4896 13.5417 15.9583 13.5417 16.5313C13.5417 17.1042 13.0834 17.5729 12.5001 17.5729Z" fill="#9E9E9E"/>
</svg>
