<svg width="25" height="24" viewBox="0 0 25 24" fill="none" xmlns="http://www.w3.org/2000/svg">
<path d="M15.6875 19.3901C15.0417 19.8101 14.2292 20.1601 13.2396 20.4701L11.5937 20.9901C7.45832 22.2701 5.28124 21.2001 3.93749 17.2301L2.60416 13.2801C1.27082 9.3101 2.37499 7.2101 6.51041 5.9301L8.15624 5.4101C8.58332 5.2801 8.98957 5.1701 9.37499 5.1001C9.06249 5.7101 8.81249 6.4501 8.60416 7.3001L7.58332 11.4901C6.56249 15.6701 7.90624 17.7301 12.25 18.7201L14 19.1201C14.6042 19.2601 15.1667 19.3501 15.6875 19.3901Z" stroke="#171717" stroke-width="1.5" stroke-linecap="round" stroke-linejoin="round"/>
<path d="M13.1667 8.52979L18.2188 9.75979" stroke="#171717" stroke-width="1.5" stroke-linecap="round" stroke-linejoin="round"/>
<path d="M12.1459 12.3999L15.1667 13.1399" stroke="#171717" stroke-width="1.5" stroke-linecap="round" stroke-linejoin="round"/>
<path d="M21.8334 5.10001C22.9584 6.30001 23.1563 8.02001 22.5625 10.44L21.5417 14.62C20.6667 18.23 18.9375 19.69 15.6875 19.39C15.1667 19.35 14.6042 19.26 14 19.12L12.25 18.72C7.9063 17.73 6.56254 15.67 7.58338 11.49L8.60421 7.30001C8.81255 6.45001 9.06254 5.71001 9.37504 5.10001C10.5938 2.68001 12.6667 2.03001 16.1459 2.82001L17.8855 3.21001" stroke="#171717" stroke-width="1.5" stroke-linecap="round" stroke-linejoin="round"/>
</svg>
