<svg width="25" height="25" viewBox="0 0 25 25" fill="none" xmlns="http://www.w3.org/2000/svg">
<path d="M12.5 6.7085V10.1772" stroke="#171717" stroke-width="1.5" stroke-miterlimit="10" stroke-linecap="round"/>
<path d="M21.4479 15.8022C22.2083 17.0731 21.6042 18.7189 20.1979 19.1877C15.2187 20.8439 9.83332 20.8439 4.85416 19.1877C3.35416 18.6877 2.78124 17.1668 3.60416 15.8022L4.92707 13.5939C5.29166 12.9897 5.58332 11.9168 5.58332 11.2189V9.03141C5.58332 5.18766 8.68749 2.0835 12.5208 2.0835C16.3333 2.0835 19.4583 5.2085 19.4583 9.021V11.2085C19.4583 11.396 19.4792 11.6043 19.5104 11.8231" stroke="#171717" stroke-width="1.5" stroke-miterlimit="10" stroke-linecap="round"/>
<path d="M15.9688 19.604C15.9688 21.5103 14.4063 23.0728 12.5 23.0728C11.5521 23.0728 10.6771 22.6769 10.0521 22.0519C9.42708 21.4269 9.03125 20.5519 9.03125 19.604" stroke="#171717" stroke-width="1.5" stroke-miterlimit="10"/>
</svg>
