<svg width="18" height="17" viewBox="0 0 18 17" fill="none" xmlns="http://www.w3.org/2000/svg">
<path d="M1.81738 9.22233V10.6248C1.81738 14.1665 3.28854 15.5832 6.96642 15.5832H11.3799C15.0578 15.5832 16.5289 14.1665 16.5289 10.6248V6.37484C16.5289 2.83317 15.0578 1.4165 11.3799 1.4165H6.96642C3.28854 1.4165 1.81738 2.83317 1.81738 6.37484" stroke="white" stroke-linecap="round" stroke-linejoin="round"/>
<path d="M13.8662 10.8163V5.36921C13.8662 4.82379 13.4101 4.42713 12.8511 4.46963H12.8217C11.836 4.54755 10.3428 5.03631 9.50423 5.53922L9.42333 5.58881C9.29092 5.66673 9.06285 5.66673 8.92309 5.58881L8.80542 5.51797C7.97422 5.01506 6.481 4.54046 5.49532 4.46254C4.93629 4.42004 4.48022 4.82381 4.48022 5.36214V10.8163C4.48022 11.2484 4.848 11.6592 5.2967 11.7088L5.4291 11.7301C6.4442 11.8576 8.01837 12.3605 8.91578 12.835L8.93782 12.8421C9.06287 12.913 9.26882 12.913 9.38651 12.8421C10.2839 12.3605 11.8654 11.8646 12.8879 11.7301L13.0424 11.7088C13.4984 11.6592 13.8662 11.2555 13.8662 10.8163Z" stroke="white" stroke-linecap="round" stroke-linejoin="round"/>
<path d="M9.1731 5.73779V12.5095" stroke="white" stroke-linecap="round" stroke-linejoin="round"/>
</svg>
