<svg width="25" height="25" viewBox="0 0 25 25" fill="none" xmlns="http://www.w3.org/2000/svg">
<path d="M13.427 6.125H5.32284C3.54159 6.125 2.08325 7.58333 2.08325 9.36458V21.1979C2.08325 22.7083 3.16659 23.3542 4.4895 22.6146L8.58325 20.3333C9.02075 20.0938 9.72908 20.0938 10.1562 20.3333L14.2499 22.6146C15.5833 23.3438 16.6666 22.7083 16.6666 21.1979V9.36458C16.6666 7.58333 15.2083 6.125 13.427 6.125Z" fill="#D9D9D9"/>
<path d="M22.9166 5.32308V17.1564C22.9166 18.6668 21.8332 19.3022 20.5103 18.5731L18.4999 17.4481C18.3332 17.3543 18.2291 17.1772 18.2291 16.9897V9.36475C18.2291 6.71891 16.0728 4.56266 13.427 4.56266H9.18742C8.802 4.56266 8.53117 4.15641 8.70825 3.82308C9.24992 2.79183 10.3332 2.0835 11.5728 2.0835H19.677C21.4582 2.0835 22.9166 3.54183 22.9166 5.32308Z" fill="#D9D9D9"/>
</svg>
