<svg width="25" height="25" viewBox="0 0 25 25" fill="none" xmlns="http://www.w3.org/2000/svg">
<path d="M22.9167 5.32294V17.1563C22.9167 18.6667 21.8334 19.3021 20.5105 18.5729L16.6667 16.4271V9.36461C16.6667 7.58336 15.2084 6.12505 13.4271 6.12505H8.33337V5.32294C8.33337 3.54169 9.79169 2.08337 11.5729 2.08337H19.6771C21.4584 2.08337 22.9167 3.54169 22.9167 5.32294Z" stroke="white" stroke-width="1.5" stroke-linecap="round" stroke-linejoin="round"/>
<path d="M2.08337 21.1979C2.08337 22.7083 3.1667 23.3437 4.48962 22.6146L8.58336 20.3333C9.02086 20.0937 9.72922 20.0937 10.1667 20.3333L14.2605 22.6146C15.5834 23.3437 16.6667 22.7083 16.6667 21.1979V9.36457C16.6667 7.58332 15.2084 6.125 13.4271 6.125H5.32294C3.54169 6.125 2.08337 7.58332 2.08337 9.36457V16.1563" stroke="white" stroke-width="1.5" stroke-linecap="round" stroke-linejoin="round"/>
</svg>
