<svg width="25" height="25" viewBox="0 0 25 25" fill="none" xmlns="http://www.w3.org/2000/svg">
<path d="M22.9166 5.32306V17.1564C22.9166 18.6668 21.8333 19.3022 20.5104 18.5731L16.6666 16.4272V9.36474C16.6666 7.58349 15.2083 6.12517 13.4271 6.12517H8.33331V5.32306C8.33331 3.54181 9.79163 2.0835 11.5729 2.0835H19.6771C21.4583 2.0835 22.9166 3.54181 22.9166 5.32306Z" stroke="black" stroke-width="1.5" stroke-linecap="round" stroke-linejoin="round"/>
<path d="M2.08331 21.1979C2.08331 22.7083 3.16664 23.3437 4.48956 22.6146L8.5833 20.3333C9.0208 20.0937 9.72916 20.0937 10.1667 20.3333L14.2604 22.6146C15.5833 23.3437 16.6666 22.7083 16.6666 21.1979V9.36457C16.6666 7.58332 15.2083 6.125 13.4271 6.125H5.32288C3.54163 6.125 2.08331 7.58332 2.08331 9.36457V16.1563" stroke="black" stroke-width="1.5" stroke-linecap="round" stroke-linejoin="round"/>
</svg>
