<svg width="25" height="25" viewBox="0 0 25 25" fill="none" xmlns="http://www.w3.org/2000/svg">
<path d="M11.4688 20.8542C16.6522 20.8542 20.8542 16.6522 20.8542 11.4688C20.8542 6.28537 16.6522 2.08337 11.4688 2.08337C6.28537 2.08337 2.08337 6.28537 2.08337 11.4688C2.08337 16.6522 6.28537 20.8542 11.4688 20.8542Z" fill="white"/>
<path d="M22.9063 19.7396C22.5625 19.1042 21.8333 18.75 20.8542 18.75C20.1146 18.75 19.4792 19.0521 19.1042 19.5729C18.7292 20.0938 18.6458 20.7917 18.875 21.4896C19.3229 22.8438 20.1042 23.1458 20.5313 23.1979C20.5938 23.2083 20.6563 23.2083 20.7292 23.2083C21.1875 23.2083 21.8958 23.0104 22.5833 21.9792C23.1354 21.1771 23.2396 20.375 22.9063 19.7396Z" fill="white"/>
</svg>
