<svg width="25" height="25" viewBox="0 0 25 25" fill="none" xmlns="http://www.w3.org/2000/svg">
<path d="M15.625 12.5C15.625 10.7708 14.2292 9.375 12.5 9.375C10.7708 9.375 9.375 10.7708 9.375 12.5C9.375 14.2292 10.7708 15.625 12.5 15.625C12.9271 15.625 13.3437 15.5417 13.7187 15.375" stroke="black" stroke-width="1.5" stroke-miterlimit="10" stroke-linecap="round" stroke-linejoin="round"/>
<path d="M7.16669 21.4377L8.3021 22.0939C9.12502 22.5835 10.1875 22.2918 10.6771 21.4689L10.7917 21.271C11.7292 19.6356 13.2709 19.6356 14.2188 21.271L14.3334 21.4689C14.8229 22.2918 15.8854 22.5835 16.7084 22.0939L18.5104 21.0627C19.4584 20.521 19.7813 19.3022 19.2396 18.3647C18.2917 16.7293 19.0625 15.396 20.9479 15.396C22.0313 15.396 22.9271 14.5106 22.9271 13.4168V11.5835C22.9271 10.5002 22.0417 9.60433 20.9479 9.60433C19.8959 9.60433 19.1875 9.18766 18.9375 8.53141C18.7396 8.021 18.8229 7.35433 19.2396 6.63558C19.7813 5.68766 19.4584 4.47933 18.5104 3.93766L17.6667 3.4585" stroke="black" stroke-width="1.5" stroke-miterlimit="10" stroke-linecap="round" stroke-linejoin="round"/>
<path d="M14.2083 3.72932C13.2708 5.36474 11.7291 5.36474 10.7812 3.72932L10.6666 3.53141C10.1875 2.70849 9.12498 2.41682 8.30206 2.90641L6.49998 3.93766C5.55206 4.47932 5.22915 5.69807 5.77081 6.64599C6.71873 8.27099 5.9479 9.60433 4.06248 9.60433C2.97915 9.60433 2.08331 10.4897 2.08331 11.5835V13.4168C2.08331 14.5002 2.96873 15.396 4.06248 15.396C5.9479 15.396 6.71873 16.7293 5.77081 18.3647" stroke="black" stroke-width="1.5" stroke-miterlimit="10" stroke-linecap="round" stroke-linejoin="round"/>
</svg>
