<svg width="25" height="25" viewBox="0 0 25 25" fill="none" xmlns="http://www.w3.org/2000/svg">
<path d="M15.625 12.5C15.625 10.7708 14.2292 9.375 12.5 9.375C10.7708 9.375 9.375 10.7708 9.375 12.5C9.375 14.2292 10.7708 15.625 12.5 15.625C12.9271 15.625 13.3437 15.5417 13.7187 15.375" stroke="white" stroke-width="1.5" stroke-miterlimit="10" stroke-linecap="round" stroke-linejoin="round"/>
<path d="M7.1665 21.4375L8.30192 22.0938C9.12484 22.5834 10.1873 22.2917 10.6769 21.4688L10.7915 21.2709C11.729 19.6355 13.2707 19.6355 14.2186 21.2709L14.3332 21.4688C14.8228 22.2917 15.8853 22.5834 16.7082 22.0938L18.5103 21.0625C19.4582 20.5209 19.7811 19.3021 19.2394 18.3646C18.2915 16.7292 19.0623 15.3959 20.9478 15.3959C22.0311 15.3959 22.9269 14.5105 22.9269 13.4167V11.5834C22.9269 10.5 22.0415 9.60421 20.9478 9.60421C19.8957 9.60421 19.1873 9.18754 18.9373 8.53129C18.7394 8.02087 18.8228 7.35421 19.2394 6.63546C19.7811 5.68754 19.4582 4.47921 18.5103 3.93754L17.6665 3.45837" stroke="white" stroke-width="1.5" stroke-miterlimit="10" stroke-linecap="round" stroke-linejoin="round"/>
<path d="M14.2085 3.7292C13.271 5.36462 11.7293 5.36462 10.7814 3.7292L10.6668 3.53129C10.1877 2.70837 9.12516 2.4167 8.30225 2.90629L6.50016 3.93754C5.55225 4.4792 5.22933 5.69795 5.771 6.64587C6.71891 8.27087 5.94808 9.6042 4.06266 9.6042C2.97933 9.6042 2.0835 10.4896 2.0835 11.5834V13.4167C2.0835 14.5 2.96891 15.3959 4.06266 15.3959C5.94808 15.3959 6.71891 16.7292 5.771 18.3646" stroke="white" stroke-width="1.5" stroke-miterlimit="10" stroke-linecap="round" stroke-linejoin="round"/>
</svg>
