<svg width="18" height="18" viewBox="0 0 18 18" fill="none" xmlns="http://www.w3.org/2000/svg">
<path d="M15.09 2.91L2.54249 15.4575C2.50499 15.3075 2.48999 15.1425 2.48999 14.9625V4.395C2.48999 2.805 3.78749 1.5 5.38499 1.5H12.615C13.665 1.5 14.5875 2.0625 15.09 2.91Z" fill="#171717"/>
<path d="M16.3274 1.67241C16.1024 1.44741 15.7349 1.44741 15.5099 1.67241L1.67241 15.5174C1.44741 15.7424 1.44741 16.1099 1.67241 16.3349C1.78491 16.4399 1.92741 16.4999 2.07741 16.4999C2.22741 16.4999 2.36991 16.4399 2.48241 16.3274L16.3274 2.48241C16.5599 2.25741 16.5599 1.89741 16.3274 1.67241Z" fill="#171717"/>
<path d="M14.4676 5.78242L8.92511 11.3249C8.58011 11.6699 8.64761 12.2474 9.06761 12.4949L14.6101 15.8174C15.1126 16.1174 15.7426 15.7574 15.7426 15.1724V6.30742C15.7501 5.63992 14.9401 5.30992 14.4676 5.78242Z" fill="#171717"/>
</svg>
