<svg width="26" height="26" viewBox="0 0 26 26" fill="none" xmlns="http://www.w3.org/2000/svg">
<path d="M21.1358 6.33734L14.7008 2.6215C13.65 2.01484 12.35 2.01484 11.2883 2.6215L4.86416 6.33734C3.81333 6.944 3.16333 8.07067 3.16333 9.29484V16.7048C3.16333 17.9182 3.81333 19.0448 4.86416 19.6623L11.2992 23.3782C12.35 23.9848 13.65 23.9848 14.7117 23.3782L21.1467 19.6623C22.1975 19.0557 22.8475 17.929 22.8475 16.7048V9.29484C22.8367 8.07067 22.1867 6.95484 21.1358 6.33734ZM13 7.9515C14.3975 7.9515 15.5242 9.07817 15.5242 10.4757C15.5242 11.8732 14.3975 12.9998 13 12.9998C11.6025 12.9998 10.4758 11.8732 10.4758 10.4757C10.4758 9.089 11.6025 7.9515 13 7.9515ZM15.9033 18.0482H10.0967C9.21916 18.0482 8.71 17.0732 9.1975 16.3473C9.93416 15.2532 11.3642 14.5165 13 14.5165C14.6358 14.5165 16.0658 15.2532 16.8025 16.3473C17.29 17.0623 16.77 18.0482 15.9033 18.0482Z" fill="white"/>
</svg>
