<svg width="25" height="25" viewBox="0 0 25 25" fill="none" xmlns="http://www.w3.org/2000/svg">
<path d="M10.8645 2.52087C11.875 1.93754 13.125 1.93754 14.1458 2.52087L20.3333 6.09378C21.3437 6.67712 21.9687 7.76049 21.9687 8.93758V16.0625C21.9687 17.2292 21.3437 18.3126 20.3333 18.9063L14.1458 22.4792C13.1354 23.0626 11.8854 23.0626 10.8645 22.4792L4.67704 18.9063C3.66663 18.323 3.04163 17.2396 3.04163 16.0625V8.93758C3.04163 7.77091 3.66663 6.68753 4.67704 6.09378L6.65621 4.94798" stroke="white" stroke-width="1.5" stroke-linecap="round" stroke-linejoin="round"/>
<path d="M12.5001 11.4584C13.8405 11.4584 14.9272 10.3717 14.9272 9.03129C14.9272 7.69084 13.8405 6.60425 12.5001 6.60425C11.1596 6.60425 10.073 7.69084 10.073 9.03129C10.073 10.3717 11.1596 11.4584 12.5001 11.4584Z" stroke="white" stroke-width="1.5" stroke-linecap="round" stroke-linejoin="round"/>
<path d="M16.6667 17.3542C16.6667 15.4792 14.8021 13.9584 12.5 13.9584C10.198 13.9584 8.33337 15.4792 8.33337 17.3542" stroke="white" stroke-width="1.5" stroke-linecap="round" stroke-linejoin="round"/>
</svg>
